<svg width="200" height="32" viewBox="0 0 200 32" fill="none" xmlns="http://www.w3.org/2000/svg">
<path d="M31.4151 14.016C31.3351 13.8463 31.2083 13.703 31.0497 13.6028C30.891 13.5027 30.7071 13.4499 30.5195 13.4506H27.8089C27.5629 13.4507 27.326 13.5441 27.1462 13.7119C26.3778 14.4425 25.4646 15.0036 24.4657 15.3588C23.4668 15.714 22.4044 15.8554 21.3473 15.774C17.4347 15.5221 14.5175 12.5812 14.5579 8.93224C14.5785 7.60396 15.1226 6.33752 16.0719 5.40824C17.0212 4.47895 18.299 3.96195 19.6274 3.96962C20.1909 3.97991 20.746 4.10803 21.257 4.34573C21.768 4.58344 22.2236 4.92548 22.5945 5.34984C22.7753 5.55584 22.9265 5.78613 23.0435 6.03401C23.1113 6.23839 23.1113 6.45917 23.0435 6.66355C22.9529 6.89851 22.7784 7.09152 22.5537 7.20519C22.329 7.31885 22.0701 7.34509 21.8272 7.27883H21.8058C21.4917 7.16263 21.1596 7.10311 20.8247 7.10303C20.2408 7.09875 19.6697 7.27388 19.1885 7.60474C18.7074 7.9356 18.3394 8.40623 18.1345 8.95299C17.9295 9.49976 17.8974 10.0963 18.0424 10.6619C18.1875 11.2275 18.5028 11.7349 18.9456 12.1155C18.9832 12.1645 19.03 12.2056 19.0834 12.2367L19.1475 12.2771L19.176 12.2985C19.2097 12.3344 19.248 12.3655 19.2901 12.3911C19.9944 12.7866 20.784 13.0059 21.5914 13.0303C22.3989 13.0547 23.2002 12.8835 23.9272 12.5313C25.6258 11.6998 26.8278 9.98701 27.1462 7.95112C27.2828 7.03077 27.2176 6.09171 26.9551 5.19908C26.6926 4.30645 26.239 3.48162 25.6258 2.78182C24.8861 1.92406 23.9732 1.23269 22.9471 0.75321C21.921 0.273733 20.805 0.0170301 19.6725 0L19.5704 0C17.2093 0.0114916 14.9467 0.947555 13.2677 2.60752C11.5886 4.26748 10.6267 6.51921 10.5882 8.87998C10.5802 9.83055 10.6984 10.778 10.9398 11.6974C10.7688 11.6784 10.5977 11.657 10.4243 11.6452C6.41432 11.3886 2.8723 13.0183 0.223514 16.3037C0.103787 16.4505 0.0285402 16.6285 0.00665226 16.8166C-0.0152357 17.0048 0.0171482 17.1953 0.0999834 17.3656C0.179764 17.5355 0.306481 17.679 0.465175 17.7792C0.623869 17.8793 0.807915 17.932 0.995583 17.931H3.70614C3.95292 17.9311 4.19058 17.8377 4.37131 17.6697C5.13807 16.9376 6.05068 16.3755 7.04951 16.0202C8.04834 15.6648 9.1109 15.5243 10.1678 15.6077C14.0804 15.8595 16.9976 18.8005 16.9572 22.4494C16.9347 23.7781 16.3885 25.0441 15.4373 25.9722C14.4862 26.9002 13.207 27.4151 11.8782 27.4049C11.3147 27.3939 10.7597 27.2657 10.2484 27.0285C9.73717 26.7913 9.28091 26.4502 8.9087 26.027C8.73308 25.8182 8.58535 25.5874 8.46921 25.3405C8.40529 25.1348 8.40945 24.914 8.48109 24.7109C8.57252 24.4766 8.74718 24.2843 8.97161 24.1708C9.19604 24.0572 9.45447 24.0305 9.69739 24.0957H9.71877C10.0336 24.212 10.3666 24.2716 10.7023 24.2715C11.286 24.2731 11.8561 24.0954 12.3356 23.7625C12.8152 23.4297 13.1809 22.9576 13.3835 22.4102C13.5861 21.8628 13.6158 21.2663 13.4685 20.7015C13.3212 20.1366 13.0041 19.6306 12.56 19.2518C12.5238 19.2046 12.4786 19.165 12.427 19.1354L12.3604 19.0927L12.3296 19.0689C12.2959 19.033 12.2576 19.0018 12.2155 18.9763C11.5111 18.5808 10.7216 18.3615 9.91414 18.3371C9.10671 18.3127 8.30534 18.4839 7.57836 18.8361C5.88931 19.6747 4.68489 21.3804 4.37131 23.4234C4.23431 24.3435 4.29913 25.2825 4.56125 26.1751C4.82338 27.0678 5.27654 27.8927 5.88931 28.5927C6.62903 29.4503 7.54196 30.1416 8.56805 30.6211C9.59413 31.1005 10.7101 31.3573 11.8426 31.3745H11.9471C14.3077 31.3624 16.5697 30.426 18.2483 28.7661C19.9268 27.1063 20.8884 24.8549 20.9268 22.4945C20.9349 21.5439 20.8166 20.5965 20.5753 19.6771C20.7463 19.6961 20.9197 19.7174 21.0931 19.7293C21.3616 19.746 21.6276 19.7555 21.8937 19.7555C25.5711 19.7555 28.8209 18.1353 31.2916 15.0708C31.4099 14.9247 31.4843 14.748 31.5062 14.5613C31.528 14.3746 31.4965 14.1855 31.4151 14.016Z" fill="#00B4C4"/>
<path d="M45.9341 27.2767C45.4867 27.3662 45.0333 27.4226 44.5776 27.4454C44.1191 27.4667 43.701 27.4786 43.3209 27.4786C42.9408 27.4786 42.499 27.4786 41.9977 27.4454C41.519 27.4254 41.0425 27.369 40.5724 27.2767V4.59213L40.8099 4.39258H55.1514C55.2242 4.72373 55.2742 5.05947 55.3011 5.39746C55.3343 5.77755 55.3509 6.12201 55.3509 6.43559C55.3509 7.32882 55.1134 7.9726 54.6644 8.3622C54.2154 8.7518 53.4766 8.94897 52.505 8.94897H45.9008C45.9008 9.39558 45.9008 9.83745 45.9175 10.2722C45.9341 10.7069 45.9341 11.1393 45.9341 11.5621V13.674H53.1036C53.2027 14.0357 53.2702 14.4053 53.3056 14.7787C53.347 15.1463 53.3692 15.5158 53.3721 15.8857C53.3694 16.2493 53.3472 16.6125 53.3056 16.9737C53.2695 17.3415 53.2019 17.7055 53.1036 18.0618H45.9341V27.2767Z" fill="#98134B"/>
<path d="M71.299 18.9002C71.3216 20.2155 71.1413 21.5264 70.7645 22.7867C70.3915 23.9291 69.7476 24.9642 68.8878 25.8037C68.2042 26.48 67.3802 26.9974 66.4742 27.3193C65.5365 27.6419 64.5508 27.8025 63.5593 27.7945C62.5568 27.8042 61.5599 27.6435 60.6112 27.3193C59.7153 27.004 58.903 26.489 58.2356 25.8132C57.3758 24.9737 56.7319 23.9386 56.3589 22.7962C55.9819 21.5327 55.8024 20.2185 55.8267 18.9002C55.8031 17.5904 55.9835 16.2848 56.3613 15.0304C56.7376 13.8951 57.3812 12.8669 58.238 12.0324C58.9052 11.356 59.7176 10.8401 60.6136 10.5239C61.5623 10.1997 62.5592 10.039 63.5617 10.0488C64.5532 10.0407 65.5389 10.2013 66.4765 10.5239C67.3827 10.8436 68.2075 11.3586 68.8925 12.0324C69.7492 12.8669 70.3929 13.8951 70.7692 15.0304C71.1454 16.2851 71.3241 17.5906 71.299 18.9002ZM61.1813 18.9002C61.1813 19.5939 61.2075 20.2401 61.2645 20.8435C61.3049 21.3811 61.4175 21.9109 61.5994 22.4185C61.7383 22.8275 61.9844 23.1918 62.3121 23.4733C62.6665 23.7453 63.106 23.8825 63.5522 23.8605C63.9935 23.8845 64.4285 23.7468 64.7756 23.4733C65.0997 23.1886 65.3452 22.8254 65.4883 22.4185C65.6691 21.9106 65.7817 21.381 65.8232 20.8435C65.8779 20.2401 65.9064 19.5939 65.9064 18.9002C65.9064 18.2066 65.8779 17.5651 65.8232 16.9736C65.7805 16.4417 65.6679 15.9177 65.4883 15.4152C65.3452 15.0083 65.0997 14.6451 64.7756 14.3605C64.4276 14.0887 63.9931 13.952 63.5522 13.9756C63.1065 13.9543 62.6675 14.0906 62.3121 14.3605C61.9844 14.6419 61.7383 15.0062 61.5994 15.4152C61.4187 15.9174 61.306 16.4415 61.2645 16.9736C61.2075 17.5651 61.1813 18.2089 61.1813 18.9002Z" fill="#98134B"/>
<path d="M73.3085 12.9709C73.3628 12.7258 73.4425 12.4869 73.5461 12.2582C73.661 11.9952 73.7894 11.7383 73.9309 11.4885C74.0675 11.2453 74.2265 11.0155 74.406 10.802C74.5494 10.6206 74.7084 10.4521 74.8811 10.2983C75.8173 10.3273 76.724 10.6323 77.4874 11.175C78.2507 11.7177 78.8366 12.4739 79.1715 13.3486C79.5195 12.5187 80.0525 11.7793 80.7299 11.1868C81.3887 10.6167 82.2653 10.3316 83.3596 10.3316C83.7746 10.3249 84.1894 10.3527 84.5997 10.4147C84.9109 10.4718 85.2364 10.5335 85.5713 10.6C85.5675 10.9642 85.5389 11.3277 85.4858 11.6881C85.4271 12.1232 85.3438 12.5547 85.2364 12.9804C85.1247 13.427 84.9988 13.8665 84.8325 14.3036C84.6861 14.7186 84.4958 15.1168 84.2647 15.4914C83.9897 15.3844 83.7024 15.3118 83.4095 15.2752C83.1292 15.242 82.8441 15.2016 82.5543 15.1564C82.0078 15.1423 81.4694 15.2911 81.0078 15.584C80.5269 15.9243 80.1224 16.3613 79.82 16.8669V27.2862C79.4039 27.3578 78.9845 27.4086 78.5633 27.4383C78.1048 27.4715 77.6511 27.4881 77.2069 27.4881C76.7626 27.4881 76.3065 27.4715 75.848 27.4383C75.4268 27.4087 75.0074 27.358 74.5913 27.2862V16.4535C74.5913 15.4478 74.4464 14.6663 74.1566 14.1088C73.9582 13.6734 73.6691 13.2854 73.3085 12.9709Z" fill="#98134B"/>
<path d="M98.6751 10.5241C98.8024 11.124 98.8693 11.7352 98.8747 12.3485C98.8777 12.9968 98.8108 13.6436 98.6751 14.2775L94.6865 14.2086V21.8889C94.6865 22.9342 95.1783 23.4568 96.1618 23.4568H98.0361C98.1762 23.8552 98.2835 24.2644 98.3568 24.6802C98.4316 25.095 98.4706 25.5155 98.4732 25.9369C98.4728 26.1385 98.4617 26.3399 98.4399 26.5403C98.4184 26.7324 98.3842 26.9229 98.3378 27.1105C97.713 27.2007 96.998 27.2768 96.1998 27.348C95.4016 27.4193 94.6699 27.4502 94.0213 27.4502C92.4788 27.4502 91.3504 27.0756 90.6361 26.3265C89.9219 25.5774 89.5631 24.3975 89.56 22.7869V14.2086L86.9468 14.2537C86.7819 13.6339 86.702 12.9946 86.7093 12.3533C86.711 11.7422 86.7908 11.1339 86.9468 10.5431L89.56 10.6096V8.64734C89.56 7.48646 89.7777 6.67084 90.2133 6.20047C90.6488 5.7301 91.3805 5.49254 92.4083 5.48779H94.4513L94.6889 5.72535V10.5906L98.6751 10.5241Z" fill="#98134B"/>
<path d="M105.744 20.6084C105.784 21.0337 105.864 21.4544 105.982 21.8651C106.083 22.2346 106.254 22.5814 106.485 22.8866C106.718 23.1851 107.025 23.417 107.376 23.5589C107.819 23.7286 108.291 23.8093 108.766 23.7964C109.519 23.7977 110.269 23.6962 110.994 23.4947C111.719 23.2937 112.432 23.0558 113.132 22.7821C113.524 23.2006 113.829 23.6933 114.028 24.2312C114.247 24.7572 114.398 25.3088 114.479 25.8727C113.556 26.5105 112.531 26.9861 111.448 27.2791C110.298 27.6111 109.107 27.7807 107.911 27.7827C106.438 27.7827 105.221 27.5364 104.259 27.0439C103.34 26.5888 102.551 25.9089 101.965 25.0674C101.387 24.2233 100.983 23.2729 100.777 22.2713C100.551 21.2077 100.439 20.1231 100.442 19.0358C100.432 17.8352 100.572 16.6381 100.86 15.4724C101.109 14.4439 101.56 13.475 102.185 12.6216C102.794 11.8073 103.594 11.1547 104.514 10.7212C105.592 10.2353 106.766 9.99981 107.949 10.0322C108.957 10.0173 109.958 10.1997 110.897 10.5691C111.728 10.9015 112.477 11.4105 113.092 12.061C113.693 12.7145 114.155 13.4841 114.448 14.3226C114.768 15.2265 114.929 16.1789 114.923 17.1377C114.929 17.7579 114.901 18.378 114.84 18.9954C114.777 19.5364 114.659 20.0696 114.489 20.587L105.744 20.6084ZM107.92 13.7786C107.184 13.7786 106.649 14.0423 106.312 14.5649C105.975 15.0875 105.777 15.9 105.708 16.9951H110.132V16.6293C110.152 15.924 109.972 15.2275 109.614 14.6195C109.277 14.0541 108.704 13.7786 107.92 13.7786Z" fill="#98134B"/>
<path d="M136.672 25.9728C136.293 26.5038 135.77 26.9158 135.166 27.1606C134.52 27.4384 133.824 27.5807 133.12 27.5787C132.7 27.5892 132.28 27.5273 131.88 27.3958C131.55 27.2763 131.253 27.082 131.011 26.828C130.745 26.5431 130.53 26.2154 130.374 25.8587C130.176 25.4201 130.007 24.9685 129.871 24.507L128.597 20.5992C128.261 19.5333 127.859 18.7818 127.39 18.3447C126.864 17.8919 126.183 17.6589 125.49 17.6938C125.267 17.6938 125.034 17.6938 124.777 17.7104C124.521 17.7271 124.274 17.7389 124.008 17.7603V27.277C123.548 27.3677 123.083 27.4241 122.615 27.4456C122.14 27.467 121.706 27.4789 121.325 27.4789C121.012 27.4789 120.613 27.4789 120.085 27.4456C119.602 27.4262 119.121 27.3698 118.646 27.277V4.39284C119.121 4.30005 119.602 4.24366 120.085 4.22418C120.601 4.2028 121.012 4.19092 121.325 4.19092C121.706 4.19092 122.136 4.2028 122.615 4.22418C123.083 4.2457 123.548 4.30208 124.008 4.39284V13.2372L124.877 13.2039C125.192 13.2346 125.508 13.1502 125.765 12.9664C126.013 12.6972 126.221 12.394 126.383 12.066L129.566 6.06764C129.802 5.52533 130.15 5.03941 130.588 4.64228C130.959 4.34296 131.538 4.19092 132.315 4.19092C132.762 4.19092 133.276 4.20755 133.857 4.24081C134.438 4.27406 134.992 4.31366 135.52 4.35959L135.821 4.7278L131.747 12.4437C131.301 13.3833 130.662 14.218 129.871 14.893C130.375 15.0055 130.861 15.1904 131.312 15.4417C131.699 15.6654 132.045 15.9539 132.334 16.2946C132.617 16.6325 132.856 17.0044 133.047 17.4016C133.242 17.8159 133.416 18.2401 133.567 18.6726L134.935 22.8251C135.137 23.4047 135.337 23.9464 135.539 24.45C135.799 25.0353 136.186 25.5555 136.672 25.9728Z" fill="#98134B"/>
<path d="M153.126 24.8664C152.981 25.3892 152.767 25.8902 152.489 26.3559C152.249 26.8138 151.919 27.218 151.517 27.5437C150.763 27.5461 150.021 27.3616 149.356 27.0069C148.792 26.6955 148.296 26.2747 147.897 25.7692C147.289 26.3485 146.594 26.8294 145.837 27.1945C144.953 27.6039 143.987 27.8047 143.013 27.7813C142.234 27.8004 141.462 27.6453 140.751 27.3276C140.146 27.0515 139.608 26.646 139.176 26.1398C138.762 25.6551 138.44 25.0988 138.226 24.4982C138.018 23.9172 137.91 23.3051 137.908 22.688C137.884 21.7909 138.074 20.9011 138.461 20.0915C138.812 19.3864 139.315 18.7681 139.934 18.2813C140.567 17.7928 141.29 17.4344 142.062 17.2265C142.875 17.0005 143.716 16.8878 144.559 16.8916H145.626C146.057 16.8921 146.487 16.9143 146.916 16.9581V16.3214C146.916 14.9151 146.19 14.2111 144.74 14.2095C143.946 14.2213 143.158 14.3339 142.393 14.5445C141.545 14.7709 140.685 15.0172 139.813 15.2833C139.409 14.7909 139.112 14.2197 138.941 13.6061C138.75 12.9648 138.618 12.3071 138.549 11.6415C139.153 11.4004 139.771 11.1949 140.4 11.0262C141.069 10.8488 141.745 10.6905 142.426 10.5511C143.107 10.4117 143.778 10.3135 144.438 10.2565C145.098 10.19 145.695 10.1567 146.232 10.1567C146.963 10.1555 147.691 10.2571 148.393 10.4585C149.084 10.6553 149.73 10.9854 150.294 11.4301C150.882 11.9012 151.352 12.5031 151.667 13.188C152.039 14.0377 152.217 14.9596 152.187 15.8867V22.688C152.187 23.6937 152.5 24.4198 153.126 24.8664ZM144.547 23.9162C145.35 23.9162 146.142 23.5923 146.923 22.9446V20.2744C146.588 20.253 146.265 20.2364 145.951 20.2245C145.638 20.2126 145.36 20.2079 145.115 20.2079C144.355 20.2079 143.813 20.4051 143.49 20.7947C143.152 21.2411 142.983 21.7936 143.015 22.3531C143.003 22.767 143.153 23.1692 143.433 23.4743C143.576 23.6249 143.749 23.7432 143.941 23.8214C144.133 23.8997 144.34 23.936 144.547 23.9281V23.9162Z" fill="#98134B"/>
<path d="M154.765 26.1314C154.767 25.8206 154.806 25.5112 154.881 25.2096C154.962 24.8781 155.069 24.5533 155.199 24.238C155.33 23.9213 155.48 23.6134 155.651 23.3163C155.802 23.0475 155.988 22.7999 156.204 22.5798C156.969 22.9713 157.763 23.3017 158.58 23.5681C159.313 23.8259 160.081 23.967 160.858 23.9862C161.504 23.9862 161.991 23.8745 162.314 23.6512C162.46 23.5646 162.581 23.442 162.667 23.2953C162.752 23.1485 162.798 22.9823 162.801 22.8126C162.798 22.4938 162.672 22.1886 162.45 21.9598C162.115 21.6458 161.706 21.4211 161.262 21.3065L159.418 20.5938C158.853 20.3781 158.304 20.1209 157.777 19.8241C157.28 19.5478 156.829 19.1977 156.437 18.786C156.053 18.3782 155.751 17.8998 155.548 17.3773C155.328 16.8005 155.22 16.1869 155.23 15.5695C155.23 13.8717 155.816 12.5255 156.988 11.5309C158.16 10.5364 159.744 10.0391 161.739 10.0391C162.272 10.0425 162.804 10.0822 163.331 10.1578C163.9 10.2355 164.466 10.3417 165.025 10.4762C165.583 10.6092 166.108 10.7612 166.6 10.9275C167.044 11.0779 167.48 11.2516 167.906 11.4478C167.927 11.7843 167.904 12.1221 167.837 12.4527C167.772 12.8079 167.671 13.1557 167.536 13.4908C167.409 13.8188 167.25 14.1332 167.061 14.4292C166.903 14.683 166.705 14.9093 166.474 15.0991C165.761 14.7879 165.001 14.4957 164.196 14.2296C163.416 13.9696 162.599 13.838 161.777 13.84C161.412 13.8156 161.049 13.9226 160.756 14.1417C160.642 14.2353 160.552 14.3535 160.491 14.4872C160.43 14.621 160.4 14.7669 160.404 14.9138C160.404 15.4491 160.829 15.8735 161.678 16.1871L163.756 16.9235C164.954 17.3237 166.043 17.9944 166.939 18.8834C167.774 19.7434 168.191 20.8924 168.191 22.3304C168.208 23.116 168.045 23.895 167.716 24.6086C167.395 25.2756 166.926 25.86 166.343 26.3167C165.705 26.8101 164.979 27.1799 164.205 27.407C163.302 27.6745 162.365 27.8042 161.423 27.7919C160.163 27.8037 158.906 27.6439 157.689 27.3168C156.669 27.044 155.687 26.6459 154.765 26.1314Z" fill="#98134B"/>
<path d="M169.618 26.1317C169.62 25.821 169.66 25.5116 169.735 25.21C169.816 24.8785 169.922 24.5537 170.053 24.2384C170.184 23.9216 170.336 23.6138 170.507 23.3167C170.657 23.0474 170.844 22.7997 171.06 22.5802C171.825 22.9718 172.619 23.3022 173.436 23.5685C174.169 23.8263 174.938 23.9674 175.714 23.9866C176.363 23.9866 176.847 23.8749 177.173 23.6516C177.317 23.5637 177.436 23.4406 177.519 23.2938C177.602 23.1471 177.646 22.9817 177.648 22.813C177.645 22.494 177.519 22.1883 177.296 21.9602C176.961 21.6462 176.553 21.4215 176.108 21.3069L174.267 20.5942C173.701 20.3781 173.152 20.1208 172.623 19.8245C172.128 19.5521 171.675 19.207 171.281 18.8007C170.898 18.3922 170.596 17.914 170.393 17.3919C170.173 16.8149 170.065 16.2014 170.074 15.5841C170.074 13.8863 170.661 12.5402 171.835 11.5456C173.008 10.551 174.592 10.0537 176.586 10.0537C177.119 10.0571 177.65 10.0968 178.178 10.1725C178.746 10.2499 179.311 10.3562 179.869 10.4908C180.427 10.6239 180.952 10.7759 181.444 10.9422C181.889 11.0921 182.325 11.2658 182.751 11.4624C182.771 11.7989 182.749 12.1365 182.684 12.4673C182.617 12.8223 182.516 13.17 182.382 13.5055C182.252 13.8339 182.089 14.1483 181.895 14.4438C181.738 14.697 181.54 14.9232 181.311 15.1137C180.598 14.8025 179.836 14.5103 179.03 14.2443C178.254 13.9799 177.44 13.8436 176.619 13.8404C176.254 13.8156 175.891 13.9226 175.598 14.1421C175.484 14.2357 175.394 14.3539 175.333 14.4876C175.272 14.6214 175.242 14.7673 175.246 14.9142C175.246 15.4487 175.669 15.8644 176.519 16.1875L178.596 16.9239C179.794 17.3235 180.883 17.9942 181.779 18.8838C182.628 19.7438 183.052 20.8888 183.052 22.3189C183.07 23.1046 182.907 23.8839 182.577 24.5971C182.256 25.2641 181.787 25.8485 181.204 26.3052C180.566 26.7989 179.841 27.1687 179.066 27.3956C178.159 27.6642 177.216 27.794 176.27 27.7804C175.009 27.7921 173.752 27.6322 172.533 27.3053C171.517 27.035 170.538 26.6409 169.618 26.1317Z" fill="#98134B"/>
<path d="M200 24.8658C199.857 25.3889 199.642 25.89 199.363 26.3553C199.124 26.8131 198.793 27.2173 198.392 27.5431C197.638 27.5451 196.895 27.3607 196.23 27.0062C195.666 26.6954 195.171 26.2745 194.774 25.7685C194.164 26.3474 193.469 26.8283 192.712 27.1938C191.825 27.6043 190.856 27.8051 189.88 27.7806C189.102 27.7992 188.329 27.6442 187.618 27.3269C187.013 27.0508 186.475 26.6453 186.043 26.1391C185.634 25.6528 185.316 25.0967 185.105 24.4975C184.897 23.9165 184.789 23.3044 184.787 22.6873C184.763 21.7902 184.953 20.9004 185.34 20.0908C185.692 19.3894 186.196 18.7751 186.815 18.2925C187.442 17.8056 188.159 17.4471 188.925 17.2377C189.738 17.0117 190.578 16.899 191.422 16.9028H192.51C192.941 16.9033 193.371 16.9255 193.8 16.9693V16.3207C193.8 14.9144 193.074 14.2104 191.624 14.2088C190.83 14.221 190.042 14.3335 189.277 14.5438C188.428 14.7703 187.568 15.0165 186.697 15.2826C186.293 14.7906 185.996 14.2192 185.827 13.6054C185.63 12.961 185.495 12.2991 185.423 11.6289C186.026 11.3921 186.641 11.1906 187.267 11.0255C187.937 10.8474 188.614 10.6906 189.293 10.5504C189.973 10.4103 190.645 10.3129 191.305 10.2487C191.966 10.1846 192.562 10.1489 193.097 10.1489C193.828 10.1475 194.555 10.2491 195.258 10.4506C195.949 10.6475 196.595 10.9776 197.159 11.4223C197.748 11.8927 198.218 12.4948 198.532 13.1802C198.904 14.0299 199.081 14.9518 199.052 15.8789V22.6873C199.058 23.693 199.374 24.4191 200 24.8658ZM191.422 23.9155C192.228 23.9155 193.02 23.5916 193.797 22.9439V20.2737C193.462 20.2516 193.138 20.2349 192.828 20.2238C192.514 20.2238 192.234 20.2072 191.989 20.2072C191.229 20.2072 190.688 20.4044 190.365 20.794C190.022 21.2388 189.849 21.7915 189.878 22.3524C189.866 22.7667 190.017 23.1693 190.298 23.4737C190.442 23.6257 190.616 23.7449 190.81 23.8232C191.004 23.9015 191.213 23.937 191.422 23.9274V23.9155Z" fill="#98134B"/>
</svg>
