<svg width="64" height="65" viewBox="0 0 64 65" fill="none" xmlns="http://www.w3.org/2000/svg">
<circle cx="16" cy="27.2881" r="10.5" stroke="#3D575F" stroke-width="3"/>
<path d="M12.392 26.0441C13.092 25.6054 13.6567 25.1574 14.086 24.7001C14.5247 24.2428 14.8747 23.7481 15.136 23.2161C15.332 23.1788 15.514 23.1554 15.682 23.1461C15.85 23.1368 16.0133 23.1321 16.172 23.1321C16.3307 23.1321 16.494 23.1368 16.662 23.1461C16.83 23.1554 17.0073 23.1788 17.194 23.2161V29.4741C17.194 29.6421 17.1893 29.8148 17.18 29.9921C17.18 30.1601 17.18 30.3328 17.18 30.5101C17.236 30.5101 17.306 30.5101 17.39 30.5101C17.4833 30.5101 17.572 30.5101 17.656 30.5101C17.7493 30.5008 17.838 30.4961 17.922 30.4961C18.006 30.4961 18.076 30.4961 18.132 30.4961H18.888C18.9627 30.7761 19 31.0748 19 31.3921C19 31.7094 18.9627 32.0081 18.888 32.2881H13.05C12.9753 31.9894 12.938 31.6908 12.938 31.3921C12.938 31.0748 12.9753 30.7761 13.05 30.4961H14.184C14.2867 30.4961 14.4313 30.5008 14.618 30.5101C14.814 30.5101 14.968 30.5101 15.08 30.5101C15.08 30.3328 15.0753 30.1601 15.066 29.9921C15.066 29.8148 15.066 29.6421 15.066 29.4741V27.6401C15.066 27.4534 15.0753 27.2108 15.094 26.9121C15.122 26.6134 15.1453 26.3148 15.164 26.0161C14.8933 26.3148 14.5947 26.5714 14.268 26.7861C13.9413 27.0008 13.6193 27.1734 13.302 27.3041C13.0873 27.2108 12.8913 27.0474 12.714 26.8141C12.546 26.5714 12.4387 26.3148 12.392 26.0441Z" fill="#C70E59"/>
<circle cx="47" cy="16.2881" r="10.5" stroke="#3D575F" stroke-width="3"/>
<path d="M49.832 18.4401C49.832 18.5428 49.8273 18.6781 49.818 18.8461C49.8087 19.0048 49.7947 19.1448 49.776 19.2661C49.664 19.9568 49.2207 20.3021 48.446 20.3021H44.274C44.1993 20.2368 44.12 20.1528 44.036 20.0501C43.952 19.9474 43.868 19.8354 43.784 19.7141C43.7093 19.5928 43.644 19.4668 43.588 19.3361C43.5413 19.2054 43.518 19.0841 43.518 18.9721C43.518 18.7574 43.56 18.5474 43.644 18.3421C43.728 18.1274 43.8447 17.9174 43.994 17.7121C44.1433 17.4974 44.3113 17.2874 44.498 17.0821C44.694 16.8768 44.904 16.6761 45.128 16.4801L46.64 15.1081C46.8547 14.9214 47.032 14.7208 47.172 14.5061C47.312 14.2914 47.382 14.0488 47.382 13.7781C47.382 13.4981 47.2933 13.2648 47.116 13.0781C46.948 12.8821 46.7147 12.7841 46.416 12.7841C46.248 12.7841 46.094 12.8214 45.954 12.8961C45.8233 12.9614 45.7067 13.0548 45.604 13.1761C45.5013 13.2881 45.4127 13.4188 45.338 13.5681C45.2633 13.7174 45.2073 13.8668 45.17 14.0161C45.0393 14.0161 44.8993 14.0021 44.75 13.9741C44.6007 13.9461 44.4513 13.9041 44.302 13.8481C44.162 13.7921 44.0267 13.7268 43.896 13.6521C43.7747 13.5681 43.6813 13.4748 43.616 13.3721C43.7093 13.0454 43.8447 12.7421 44.022 12.4621C44.1993 12.1728 44.414 11.9208 44.666 11.7061C44.9273 11.4914 45.2213 11.3234 45.548 11.2021C45.884 11.0714 46.248 11.0061 46.64 11.0061C47.088 11.0061 47.4893 11.0761 47.844 11.2161C48.208 11.3468 48.5207 11.5381 48.782 11.7901C49.0433 12.0328 49.244 12.3268 49.384 12.6721C49.524 13.0174 49.594 13.4048 49.594 13.8341C49.594 14.1328 49.5473 14.4128 49.454 14.6741C49.37 14.9261 49.2533 15.1641 49.104 15.3881C48.9547 15.6121 48.7773 15.8268 48.572 16.0321C48.3667 16.2281 48.152 16.4241 47.928 16.6201L46.92 17.4601C46.724 17.6281 46.5093 17.8148 46.276 18.0201C46.052 18.2254 45.8887 18.4168 45.786 18.5941C46.1687 18.5474 46.542 18.5101 46.906 18.4821C47.2793 18.4541 47.6153 18.4401 47.914 18.4401H49.832Z" fill="#C70E59"/>
<circle cx="42" cy="48.2881" r="10.5" stroke="#3D575F" stroke-width="3"/>
<path d="M43.012 47.4921C42.9467 47.5574 42.8813 47.6181 42.816 47.6741C42.7507 47.7301 42.6807 47.7861 42.606 47.8421C42.9327 47.8888 43.236 47.9821 43.516 48.1221C43.796 48.2528 44.034 48.4301 44.23 48.6541C44.4353 48.8781 44.594 49.1441 44.706 49.4521C44.8273 49.7508 44.888 50.0914 44.888 50.4741C44.888 50.9501 44.7947 51.3794 44.608 51.7621C44.4307 52.1354 44.188 52.4528 43.88 52.7141C43.572 52.9661 43.2127 53.1574 42.802 53.2881C42.3913 53.4281 41.962 53.4981 41.514 53.4981C40.87 53.4981 40.2867 53.4001 39.764 53.2041C39.2507 53.0081 38.8353 52.7654 38.518 52.4761C38.5647 52.2148 38.672 51.9581 38.84 51.7061C39.008 51.4541 39.204 51.2394 39.428 51.0621C39.6707 51.2488 39.9413 51.4121 40.24 51.5521C40.548 51.6828 40.8793 51.7481 41.234 51.7481C41.6633 51.7481 42.004 51.6268 42.256 51.3841C42.5173 51.1414 42.648 50.8101 42.648 50.3901C42.648 49.9981 42.5267 49.6994 42.284 49.4941C42.0413 49.2794 41.752 49.1721 41.416 49.1721C41.1453 49.1721 40.8933 49.2281 40.66 49.3401C40.4733 49.2561 40.3053 49.1021 40.156 48.8781C40.0067 48.6448 39.904 48.4068 39.848 48.1641L41.136 46.8341C41.2013 46.7688 41.276 46.6941 41.36 46.6101C41.4533 46.5261 41.542 46.4468 41.626 46.3721C41.7193 46.2881 41.8033 46.2134 41.878 46.1481C41.962 46.0734 42.032 46.0128 42.088 45.9661L42.032 45.8821C41.948 45.9008 41.8407 45.9241 41.71 45.9521C41.5887 45.9708 41.4627 45.9894 41.332 46.0081C41.2013 46.0174 41.0753 46.0268 40.954 46.0361C40.8327 46.0454 40.7393 46.0501 40.674 46.0501H38.98C38.9147 45.8821 38.8727 45.7281 38.854 45.5881C38.8447 45.4388 38.84 45.3174 38.84 45.2241C38.84 45.0934 38.8493 44.9394 38.868 44.7621C38.896 44.5754 38.9473 44.3934 39.022 44.2161H44.076C44.1787 44.3934 44.2767 44.5894 44.37 44.8041C44.4633 45.0188 44.51 45.2474 44.51 45.4901C44.51 45.8074 44.37 46.1108 44.09 46.4001L43.012 47.4921Z" fill="#C70E59"/>
<path d="M40 24.7881L34.5 30.7881M34.5 30.7881L37.5 37.7881M34.5 30.7881L27 29.2881" stroke="#3D575F" stroke-width="3"/>
</svg>
