<svg width="64" height="65" viewBox="0 0 64 65" fill="none" xmlns="http://www.w3.org/2000/svg">
<path fill-rule="evenodd" clip-rule="evenodd" d="M27.7909 5.92628C27.356 5.73248 26.855 5.75664 26.4408 5.99138L6.57776 17.2479C6.10779 17.5142 5.81732 18.0127 5.81732 18.5529V43.0921C5.81732 43.6593 6.13724 44.1779 6.6441 44.4325L38.4701 60.4167C38.9412 60.6533 39.502 60.6253 39.9471 60.3427L59.8101 47.7354C60.2436 47.4603 60.5063 46.9825 60.5063 46.469V21.4796C60.5063 20.8873 60.1578 20.3505 59.6169 20.1095L27.7909 5.92628ZM10.5692 18.4342L27.2612 8.97466L55.7909 21.6889L39.0524 31.9336L10.5692 18.4342ZM8.81732 20.9237V42.1669L37.6433 56.6444V34.5856L8.81732 20.9237ZM40.6433 56.3476L57.5063 45.6444V24.1563L40.6433 34.4772V56.3476ZM35.091 50.3949C34.9328 51.1086 34.2125 51.5566 33.4822 51.3956C32.7519 51.2345 32.2881 50.5254 32.4463 49.8117C32.6045 49.0979 33.3248 48.6499 34.0551 48.811C34.7854 48.972 35.2492 49.6811 35.091 50.3949ZM29.18 49.7955C29.9103 49.9565 30.6306 49.5085 30.7888 48.7948C30.947 48.0811 30.4832 47.3719 29.7529 47.2109C29.0226 47.0498 28.3023 47.4979 28.1441 48.2116C27.9858 48.9253 28.4496 49.6344 29.18 49.7955Z" fill="#3D575F"/>
<path d="M18.9387 10.5024L50.8349 26.5324L46.8179 28.9089L14.7354 12.9686L18.9387 10.5024Z" fill="#C70E59"/>
<path d="M51.8239 26.5322V34.5613C51.8239 34.6313 51.7961 34.6984 51.7465 34.7478V34.7478C51.6502 34.8438 51.4967 34.8508 51.3921 34.7639L50.9335 34.3826C50.4948 34.0181 49.8334 34.1374 49.5499 34.6323L48.1377 37.0972C48.1228 37.1232 48.1017 37.1449 48.0761 37.1605V37.1605C47.9581 37.2324 47.8068 37.1474 47.8068 37.0091V28.9087L51.8239 26.5322Z" fill="#3D575F"/>
<path d="M50.835 26.5322V33.5748C50.835 33.6447 50.8072 33.7118 50.7576 33.7613V33.7613C50.6614 33.8573 50.5078 33.8642 50.4033 33.7773L49.9446 33.3961C49.5059 33.0315 48.8445 33.1509 48.561 33.6458L47.1488 36.1107C47.134 36.1366 47.1128 36.1584 47.0872 36.1739V36.1739C46.9692 36.2458 46.8179 36.1609 46.8179 36.0226V28.9087L50.835 26.5322Z" fill="#98134B"/>
<ellipse cx="33.7748" cy="49.9606" rx="1.48354" ry="1.47969" fill="#C70E59"/>
<ellipse cx="29.3233" cy="48.4812" rx="1.48354" ry="1.47969" fill="#C70E59"/>
<path d="M17.1584 24.9764L14.432 23.6346C12.8887 22.875 13.2649 20.5756 14.9698 20.3476C15.2545 20.3095 15.5441 20.3424 15.8129 20.4434L18.6574 21.5124C20.5214 22.2129 20.1738 24.9479 18.1938 25.1598C17.8382 25.1979 17.4792 25.1343 17.1584 24.9764Z" fill="white"/>
<path d="M16.0502 24.4235L15.3676 24.0344C14.6176 23.6069 14.3661 22.6465 14.8106 21.9075C15.2058 21.2506 16.0254 20.986 16.7311 21.2877L17.4536 21.5966C18.292 21.955 18.6553 22.9454 18.2471 23.7596C17.8411 24.5695 16.8381 24.8726 16.0502 24.4235Z" fill="#3D575F"/>
<ellipse cx="15.375" cy="41.8055" rx="11.375" ry="11.3455" fill="white"/>
<path d="M24.302 41.8058C24.302 46.7175 20.3089 50.7058 15.3749 50.7058C10.4409 50.7058 6.44781 46.7175 6.44781 41.8058C6.44781 36.8941 10.4409 32.9058 15.3749 32.9058C20.3089 32.9058 24.302 36.8941 24.302 41.8058Z" fill="white" stroke="#3D575F" stroke-width="3"/>
<path fill-rule="evenodd" clip-rule="evenodd" d="M15.538 46.2032C16.0784 46.2032 16.5165 45.7663 16.5165 45.2272V43.0228H18.7255C19.2621 43.0228 19.6972 42.5889 19.6972 42.0537C19.6972 41.5184 19.2621 41.0845 18.7255 41.0845L16.5165 41.0845L16.5165 38.8803C16.5165 38.3413 16.0784 37.9043 15.538 37.9043C14.9975 37.9043 14.5594 38.3413 14.5594 38.8803L14.5594 41.0845L12.351 41.0845C11.8144 41.0845 11.3793 41.5184 11.3793 42.0537C11.3793 42.5889 11.8144 43.0228 12.351 43.0228L14.5594 43.0228V45.2272C14.5594 45.7663 14.9975 46.2032 15.538 46.2032Z" fill="#2CCAD9"/>
</svg>
