<svg width="64" height="65" viewBox="0 0 64 65" fill="none" xmlns="http://www.w3.org/2000/svg">
<path d="M15.4753 36.7197C12.4945 38.041 11.5594 46.7629 11 50.6686C11.9187 53.5539 20.187 60.1536 32.2575 60.1536C44.3281 60.1536 50.9924 53.983 54.0745 50.6686C53.5151 48.4368 51.2774 38.3936 49.0398 36.7197C46.8022 35.0457 39.5299 33.9299 38.9704 33.372C38.411 32.814 37.8516 30.0243 37.8516 29.4663C40.6487 27.2345 41.2081 25.5607 42.3269 22.7708C45.1239 21.655 45.1239 17.0053 42.8863 15.5173C41.8455 14.8252 43.4457 3.80029 32.2575 3.80029C21.0554 3.80029 23.307 13.8434 21.6288 15.5173C19.3911 17.1913 19.3911 21.0969 22.1882 22.7708C22.1882 25.0027 24.4258 28.3504 26.6634 29.4663C26.6634 30.5822 25.5446 32.814 24.9852 33.372C24.4258 33.9299 20.51 34.4879 15.4753 36.7197Z" stroke="#3D575F" stroke-width="3"/>
<path d="M40.7858 37.1833C41.7634 36.2083 41.7655 34.6253 40.7904 33.6478C39.8154 32.6702 38.2325 32.6681 37.2549 33.6432L40.7858 37.1833ZM32.1301 40.9111L30.5561 42.8534C31.5495 43.6585 32.9903 43.5842 33.8956 42.6812L32.1301 40.9111ZM26.3545 33.0128C25.2818 32.1435 23.7075 32.3084 22.8382 33.3811C21.9689 34.4538 22.1338 36.0281 23.2065 36.8974L26.3545 33.0128ZM37.2549 33.6432C37.3493 33.549 37.3864 33.5305 37.1792 33.6894C37.0326 33.8018 36.8313 33.9524 36.5769 34.1416C36.0773 34.513 35.4003 35.013 34.6753 35.5616C33.2601 36.6325 31.4977 38.011 30.3646 39.1411L33.8956 42.6812C34.7531 41.8259 36.252 40.6387 37.6925 39.5486C38.3953 39.0168 39.0446 38.5374 39.5604 38.1539C39.8137 37.9655 40.0423 37.7947 40.2217 37.6572C40.3404 37.5661 40.5996 37.3691 40.7858 37.1833L37.2549 33.6432ZM33.7041 38.9688L26.3545 33.0128L23.2065 36.8974L30.5561 42.8534L33.7041 38.9688Z" fill="#C70E59"/>
<path d="M37.9987 32.1068C37.3819 32.6598 37.3301 33.6081 37.8831 34.2249C38.4361 34.8418 39.3845 34.8935 40.0013 34.3405L37.9987 32.1068ZM32 38.2107L31.1297 39.4324C31.6751 39.8209 32.4121 39.8009 32.9356 39.3832L32 38.2107ZM25.8703 32.0021C25.1956 31.5214 24.259 31.6788 23.7783 32.3535C23.2976 33.0282 23.4549 33.9648 24.1297 34.4455L25.8703 32.0021ZM40.0013 34.3405C40.021 34.3228 40.0548 34.292 40.0928 34.2527C40.1043 34.2408 40.222 34.1237 40.3234 33.9468C40.3507 33.8992 40.5443 33.5775 40.5209 33.1217C40.5065 32.8401 40.4067 32.4953 40.1408 32.1979C39.8878 31.915 39.5908 31.7941 39.3905 31.7434C39.0449 31.6558 38.7641 31.7183 38.7104 31.7296C38.6092 31.7509 38.5315 31.7782 38.4939 31.7922C38.3132 31.859 38.1414 31.9691 38.1361 31.9724C38.0066 32.0512 37.8157 32.1756 37.5935 32.3238C37.1387 32.6272 36.4756 33.0817 35.7261 33.6068C34.2333 34.6527 32.3524 36.0105 31.0644 37.0382L32.9356 39.3832C34.1476 38.416 35.9658 37.1018 37.4475 36.0637C38.1853 35.5468 38.8284 35.1062 39.2581 34.8197C39.4781 34.6729 39.6242 34.5787 39.6961 34.5349C39.7914 34.4768 39.6866 34.5496 39.5351 34.6057C39.5011 34.6183 39.4265 34.6446 39.3278 34.6654C39.2765 34.6762 38.9975 34.7386 38.6533 34.6514C38.4536 34.6007 38.157 34.4801 37.9044 34.1976C37.6388 33.9006 37.5392 33.5563 37.5248 33.2752C37.5016 32.8207 37.6945 32.5006 37.7207 32.4549C37.8197 32.2821 37.9327 32.1708 37.9369 32.1665C37.9675 32.1348 37.9914 32.1133 37.9987 32.1068L40.0013 34.3405ZM32.8703 36.989L25.8703 32.0021L24.1297 34.4455L31.1297 39.4324L32.8703 36.989Z" fill="#3D575F"/>
</svg>
