<svg width="64" height="65" viewBox="0 0 64 65" fill="none" xmlns="http://www.w3.org/2000/svg">
<path d="M33.3574 9.53955H33.3567V17.7217C33.8604 17.9625 38.1423 17.9624 40.6611 17.2404C39.9054 14.834 37.6386 10.5023 37.1348 10.0209C35.6243 9.53955 33.862 9.53955 33.3574 9.53955Z" fill="#C70E59" stroke="#3D575F" stroke-width="1.5"/>
<path d="M46.9215 15.3329C46.9215 15.0844 40.6606 10.8612 40.6606 11.1097C40.9111 11.6065 42.4137 14.836 42.9146 16.8234C44.4172 16.3265 46.6711 15.5813 46.9215 15.3329Z" stroke="#3D575F" stroke-width="1.5"/>
<path d="M40.6881 19.9458C39.955 20.1854 35.3118 20.6646 33.3567 20.6646V28.0923C34.5786 28.3319 40.6881 28.3319 41.6656 28.0923C41.91 27.1339 40.9325 19.9458 40.6881 19.9458Z" stroke="#3D575F" stroke-width="1.5"/>
<path d="M48.4437 17.3442C47.4582 17.5807 44.2553 18.7634 43.2698 19C43.7625 21.3654 44.2553 26.0962 44.2553 27.752H52.1394C51.893 23.2576 49.6756 18.7634 48.4437 17.3442Z" fill="#C70E59" stroke="#3D575F" stroke-width="1.5"/>
<path d="M30.7474 9.53955H30.748V17.7217C30.2443 17.9625 25.9624 17.9624 23.4437 17.2404C24.1993 14.834 26.4662 10.5023 26.9699 10.0209C28.4804 9.53955 30.2428 9.53955 30.7474 9.53955Z" stroke="#3D575F" stroke-width="1.5"/>
<path d="M17.1826 15.3329C17.1826 15.0844 23.4435 10.8612 23.4435 11.1097C23.193 11.6065 21.6904 14.836 21.1896 16.8234C19.687 16.3265 17.433 15.5813 17.1826 15.3329Z" stroke="#3D575F" stroke-width="1.5"/>
<path d="M23.4166 19.9458C24.1497 20.1854 28.793 20.6646 30.748 20.6646V28.0923C29.5261 28.3319 23.4166 28.3319 22.4391 28.0923C22.1947 27.1339 23.1722 19.9458 23.4166 19.9458Z" stroke="#3D575F" stroke-width="1.5"/>
<path d="M15.9648 17.3442C16.8923 17.5807 19.9068 18.7634 20.8344 19C20.3706 21.3654 19.9068 26.0962 19.9068 27.752H12.4865C12.7184 23.2576 14.8053 18.7634 15.9648 17.3442Z" stroke="#3D575F" stroke-width="1.5"/>
<path d="M33.3574 49.6904H33.3567V40.9969C33.8604 40.741 38.1423 40.7412 40.6611 41.5082C39.9054 44.065 37.6386 48.6675 37.1348 49.179C35.6243 49.6904 33.862 49.6904 33.3574 49.6904Z" stroke="#3D575F" stroke-width="1.5"/>
<path d="M46.9215 43.8952C46.9215 44.1436 40.6606 48.3668 40.6606 48.1184C40.9111 47.6215 42.4137 44.392 42.9146 42.4047C44.4172 42.9015 46.6711 43.6468 46.9215 43.8952Z" stroke="#3D575F" stroke-width="1.5"/>
<path d="M40.6881 39.2295C39.955 38.9899 35.3118 38.5107 33.3567 38.5107V31.083C34.5786 30.8434 40.6881 30.8434 41.6656 31.083C41.91 32.0414 40.9325 39.2295 40.6881 39.2295Z" stroke="#3D575F" stroke-width="1.5"/>
<path d="M48.4437 41.8384C47.4582 41.5901 44.2553 40.3483 43.2698 40.0998C43.7625 37.6162 44.2553 32.6489 44.2553 30.9103H52.1394C51.893 35.6294 49.6756 40.3483 48.4437 41.8384Z" stroke="#3D575F" stroke-width="1.5"/>
<path d="M30.7474 49.6904H30.748V40.9969C30.2443 40.741 25.9624 40.7412 23.4437 41.5082C24.1993 44.065 26.4662 48.6675 26.9699 49.179C28.4804 49.6904 30.2428 49.6904 30.7474 49.6904Z" stroke="#3D575F" stroke-width="1.5"/>
<path d="M17.1826 43.8952C17.1826 44.1436 23.4435 48.3668 23.4435 48.1184C23.193 47.6215 21.6904 44.392 21.1896 42.4047C19.687 42.9015 17.433 43.6468 17.1826 43.8952Z" fill="#2CCAD9" stroke="#3D575F" stroke-width="1.5"/>
<path d="M23.4166 39.2295C24.1497 38.9899 28.793 38.5107 30.748 38.5107V31.083C29.5261 30.8434 23.4166 30.8434 22.4391 31.083C22.1947 32.0414 23.1722 39.2295 23.4166 39.2295Z" stroke="#3D575F" stroke-width="1.5"/>
<path d="M15.9648 41.8384C16.8923 41.5901 19.9068 40.3483 20.8344 40.0998C20.3706 37.6162 19.9068 32.6489 19.9068 30.9103H12.4865C12.7184 35.6294 14.8053 40.3483 15.9648 41.8384Z" stroke="#3D575F" stroke-width="1.5"/>
<path d="M20.6014 52.5012C12.0829 48.3045 6.22644 39.5716 6.22644 29.4786C6.22644 15.2969 17.7892 3.80029 32.0526 3.80029C46.316 3.80029 57.8787 15.2969 57.8787 29.4786C57.8787 42.2586 48.4889 52.858 36.1945 54.8285C34.846 55.0447 33.4068 54.9718 32.5399 56.126C31.6729 57.2802 31.8089 60.002 35.9509 60.002C40.0928 60.002 45.9402 60.002 48.6203 60.002" stroke="#3D575F" stroke-width="3" stroke-linecap="round" stroke-linejoin="round"/>
<path d="M45.5111 56.4374C46.2395 55.8024 47.1731 55.4526 48.1394 55.4526H55.1791C55.5172 55.4526 55.7913 55.7267 55.7913 56.0649V56.0649C55.7913 56.403 55.5172 56.6771 55.1791 56.6771H54.1138C53.8433 56.6771 53.6241 56.8964 53.6241 57.1668V57.1668C53.6241 57.4373 53.8433 57.6566 54.1138 57.6566H55.1791C55.5172 57.6566 55.7913 57.9307 55.7913 58.2688V58.2688C55.7913 58.607 55.5172 58.8811 55.1791 58.8811H54.2363C53.8982 58.8811 53.6241 59.1552 53.6241 59.4933V59.4933C53.6241 59.8314 53.8982 60.1055 54.2363 60.1055H55.1791C55.5172 60.1055 55.7913 60.3796 55.7913 60.7177V60.7177C55.7913 61.0558 55.5172 61.3299 55.1791 61.3299H54.1138C53.8433 61.3299 53.6241 61.5492 53.6241 61.8197V61.8197C53.6241 62.0902 53.8433 62.3095 54.1138 62.3095H55.0566C55.4624 62.3095 55.7913 62.6384 55.7913 63.0441V63.0441C55.7913 63.4499 55.4624 63.7788 55.0566 63.7788H48.1394C47.1731 63.7788 46.2395 63.429 45.5111 62.7941L43.9714 61.4519C43.5371 61.0734 43.338 60.4918 43.4492 59.9266V59.9266C43.4896 59.7213 43.4896 59.5101 43.4492 59.3048V59.3048C43.338 58.7396 43.5371 58.158 43.9714 57.7795L45.5111 56.4374Z" fill="#3D575F"/>
<rect x="48.4868" y="57.5342" width="1.04348" height="4.16309" rx="0.521742" fill="white"/>
<rect x="50.0522" y="57.5342" width="1.04348" height="4.16309" rx="0.52174" fill="white"/>
<path d="M41.1825 5.36182C42.3129 5.70874 45.3564 7.13113 46.3999 7.96375" stroke="white" stroke-width="4"/>
<ellipse cx="44.052" cy="6.92261" rx="1.04348" ry="1.04077" fill="#3D575F"/>
</svg>
