<svg width="24" height="25" viewBox="0 0 24 25" fill="none" xmlns="http://www.w3.org/2000/svg">
<path fill-rule="evenodd" clip-rule="evenodd" d="M11.9918 2.88574C14.76 2.88574 17.2662 3.99578 19.068 5.80775C20.8862 7.6034 22 10.101 22 12.8598C22 15.6022 20.8862 18.0998 19.068 19.9118C17.2662 21.7074 14.76 22.8338 11.9918 22.8338C9.23997 22.8338 6.73382 21.7074 4.91564 19.9118C3.11384 18.0998 2 15.6022 2 12.8598C2 10.101 3.11384 7.6034 4.91564 5.80775C6.73382 3.99578 9.23997 2.88574 11.9918 2.88574ZM18.1507 6.7219C16.5782 5.15479 14.3997 4.17535 11.9918 4.17535C9.60033 4.17535 7.42179 5.15479 5.8493 6.7219C4.26044 8.28902 3.29402 10.4601 3.29402 12.8598C3.29402 15.2594 4.26044 17.4305 5.8493 18.9976C7.42179 20.5647 9.60033 21.5279 11.9918 21.5279C14.3997 21.5279 16.5782 20.5647 18.1507 18.9976C19.7396 17.4305 20.706 15.2594 20.706 12.8598C20.706 10.4601 19.7396 8.28902 18.1507 6.7219ZM7.35627 12.0762C7.20885 11.6191 7.12695 11.1131 7.12695 10.5254C7.12695 10.0194 7.24161 9.54597 7.43817 9.13787C7.65111 8.71344 7.96233 8.35431 8.35545 8.04416C8.40459 7.99518 8.48649 7.92989 8.55201 7.88091C8.68305 7.75032 8.83047 7.61973 8.96151 7.61973C9.32187 7.61973 9.55119 7.96253 9.78051 8.32167L9.87879 8.45226C10.8124 9.85613 10.4357 10.15 9.92793 10.5417C9.86914 10.5945 9.80613 10.6472 9.74042 10.7022C9.62304 10.8004 9.49702 10.9059 9.37101 11.0315C8.53378 11.8802 9.47747 12.9952 10.117 13.7508C10.2031 13.8526 10.2838 13.9479 10.3538 14.0351L10.4029 14.0841C10.5831 14.2963 10.7305 14.4595 10.9107 14.6391L11.0745 14.786C12.8629 16.5682 13.3437 16.0392 13.9738 15.3461C13.99 15.3282 14.0064 15.3101 14.0229 15.2921C14.2195 15.0635 14.4324 14.8513 14.6454 14.8513C15.2325 14.8513 15.4137 15.0132 15.8842 15.4336L15.8903 15.439L16.1523 15.6675C16.3489 15.8307 16.5127 15.9777 16.6437 16.1246C16.8894 16.3858 16.9386 16.6306 16.5127 17.0387C16.0704 17.4468 15.7428 17.708 15.3825 17.8713C15.0057 18.0345 14.5635 18.0998 13.8591 18.0998C12.9419 18.0998 11.9427 17.5774 11.009 16.8592C9.74775 15.8634 8.63391 14.4922 7.97871 13.4148C7.71663 12.974 7.50369 12.5496 7.35627 12.0762Z" fill="#202020"/>
</svg>
