<svg width="24" height="24" viewBox="0 0 24 24" fill="none" xmlns="http://www.w3.org/2000/svg">
<path d="M6.65079 12.3657C6.23147 12.0063 5.60017 12.0549 5.24074 12.4742C4.88132 12.8935 4.92988 13.5248 5.34921 13.8843L6.65079 12.3657ZM18.8648 6.50214C19.1421 6.02453 18.9797 5.41253 18.5021 5.13521C18.0245 4.85789 17.4125 5.02025 17.1352 5.49786L18.8648 6.50214ZM10.3377 16.8431L9.68695 17.6023L10.3377 16.8431ZM11.8533 16.5859L12.7181 17.0881L11.8533 16.5859ZM5.34921 13.8843L9.68695 17.6023L10.9885 16.0838L6.65079 12.3657L5.34921 13.8843ZM12.7181 17.0881L18.8648 6.50214L17.1352 5.49786L10.9885 16.0838L12.7181 17.0881ZM9.68695 17.6023C10.636 18.4158 12.0904 18.1691 12.7181 17.0881L10.9885 16.0838V16.0838L9.68695 17.6023Z" fill="white"/>
</svg>
