<svg width="20" height="21" viewBox="0 0 20 21" fill="none" xmlns="http://www.w3.org/2000/svg">
<path fill-rule="evenodd" clip-rule="evenodd" d="M13.6288 12.0605C14.9165 12.0605 16.8812 13.3875 17.5724 14.0959C18.3109 14.8562 18.8222 15.7629 17.5913 17.2458C16.4172 18.6578 15.5935 18.6578 14.5472 18.6578C13.4205 18.6578 11.8108 17.9636 10.1349 16.7546C8.62944 15.6685 7.95718 15.1679 6.44223 13.6189C4.83259 11.9708 3.81947 10.6012 2.70219 8.56113C1.40975 6.20462 1.58965 5.07122 1.8595 4.19756C2.0394 3.6167 2.51756 3.04528 3.17561 2.6297C3.18745 2.62262 3.19929 2.61435 3.21112 2.60609C3.22296 2.59782 3.23479 2.58956 3.24663 2.58248L3.25157 2.5793C3.54634 2.38958 4.09778 2.03467 4.76158 2.03467C5.36283 2.03467 5.90253 2.31802 6.36648 2.88471L6.41382 2.94138C6.95353 3.59781 7.56424 4.34396 7.93825 5.12317C8.40693 6.11017 8.388 6.96021 7.8767 7.6497C7.45535 8.22112 7.28966 8.52808 7.30386 8.71698C7.31785 8.90769 7.54771 9.16713 7.89845 9.56299L7.91457 9.58119L7.94771 9.61897C8.68006 10.446 8.90156 10.674 9.18333 10.9641L9.20702 10.9885C9.23197 11.0134 9.25692 11.0393 9.28291 11.0664C9.31117 11.0958 9.34066 11.1265 9.37271 11.1585L9.45793 11.2482L9.46887 11.2596C9.79817 11.602 9.98814 11.7995 10.8451 12.5422L10.8971 12.5894C11.2096 12.8586 11.3516 12.9767 11.4842 12.9767C11.7256 12.9767 12.2275 12.665 12.8571 12.2636C13.0701 12.1266 13.3305 12.0605 13.6288 12.0605ZM14.5519 17.8786C15.5367 17.8786 16.0811 17.8786 17.0279 16.7357C17.9085 15.6732 17.6245 15.2387 17.0564 14.6626C16.4362 14.025 14.6656 12.8539 13.6382 12.8539C13.4773 12.8539 13.3495 12.8869 13.2595 12.9436C12.3789 13.5056 11.915 13.77 11.4936 13.77C11.0865 13.77 10.8072 13.5292 10.4284 13.1986L10.3764 13.1514C9.48633 12.3722 9.29223 12.1738 8.94189 11.8102L8.85668 11.7205C8.82462 11.6885 8.79513 11.6578 8.76688 11.6284C8.74088 11.6013 8.71593 11.5754 8.69098 11.5505C8.38799 11.2435 8.17022 11.0168 7.40801 10.1573L7.37487 10.1196C6.91091 9.60008 6.60319 9.25534 6.56531 8.79726C6.52271 8.32501 6.78782 7.86693 7.28965 7.19162C7.99978 6.22823 7.05767 4.92483 5.85045 3.45141L5.8031 3.39474C5.48118 3.00278 5.14505 2.81388 4.76631 2.81388C4.31577 2.81388 3.90245 3.07841 3.65087 3.23942L3.6443 3.24362C3.62651 3.25249 3.61058 3.26322 3.59535 3.27347C3.58625 3.27959 3.5774 3.28555 3.56855 3.29085C3.06672 3.60253 2.69745 4.03228 2.57436 4.43369C2.34239 5.18456 2.21456 6.096 3.35551 8.17861C4.43491 10.1479 5.4149 11.4749 6.97246 13.0664C8.4448 14.5729 9.09812 15.0593 10.5657 16.1171C12.0996 17.2174 13.5909 17.8786 14.5519 17.8786Z" fill="url(#paint0_linear)"/>
<defs>
<linearGradient id="paint0_linear" x1="-6.66665" y1="10.3462" x2="9.95643" y2="27.0128" gradientUnits="userSpaceOnUse">
<stop stop-color="#CC4C88"/>
<stop offset="1" stop-color="#9D2550"/>
</linearGradient>
</defs>
</svg>
