<svg width="20" height="21" viewBox="0 0 20 21" fill="none" xmlns="http://www.w3.org/2000/svg">
<path fill-rule="evenodd" clip-rule="evenodd" d="M15.6939 3.90235C18.6453 6.77059 18.6575 11.3774 15.7311 14.2213L10.419 19.3838L5.1069 14.2213C2.18662 11.3833 2.18662 6.77653 5.1069 3.93849L5.14409 3.90235C8.0709 1.05797 12.755 1.0462 15.6939 3.90235ZM10.419 18.2233L15.1495 13.626C17.7395 11.109 17.7287 7.04034 15.1124 4.49765C12.4977 1.95664 8.32952 1.96711 5.72565 4.49765L5.68845 4.5338C3.10388 7.04558 3.10388 11.1142 5.68845 13.626L10.419 18.2233ZM12.0247 7.46811C12.9189 8.33706 12.9189 9.75048 12.0247 10.6194C11.1367 11.4825 9.70117 11.4825 8.8131 10.6194C7.91897 9.75048 7.91897 8.33706 8.8131 7.46811C9.70117 6.60505 11.1367 6.60505 12.0247 7.46811ZM9.39465 8.06341C9.95913 7.51483 10.8787 7.51483 11.4432 8.06341C12.0016 8.60611 12.0016 9.48142 11.4432 10.0241C10.8787 10.5727 9.95913 10.5727 9.39465 10.0241C8.83623 9.48142 8.83623 8.60611 9.39465 8.06341Z" fill="url(#paint0_linear)"/>
<defs>
<linearGradient id="paint0_linear" x1="-4.58332" y1="10.5742" x2="12.8101" y2="25.3821" gradientUnits="userSpaceOnUse">
<stop stop-color="#CC4C88"/>
<stop offset="1" stop-color="#9D2550"/>
</linearGradient>
</defs>
</svg>
