<svg width="20" height="21" viewBox="0 0 20 21" fill="none" xmlns="http://www.w3.org/2000/svg">
<path fill-rule="evenodd" clip-rule="evenodd" d="M9.99944 1.86914C14.1392 1.86914 17.4989 5.1935 17.4989 9.28982L17.5 9.29038V12.3181V12.5557C17.5 13.6833 16.96 14.693 16.1501 15.3458C15.0701 16.8892 13.4198 17.9878 11.5001 18.3735V18.4921H8.50045V16.7111H11.5305V17.7502C12.7904 17.453 13.9002 16.8597 14.8001 15.9987C14.4998 16.0877 14.2298 16.1172 13.93 16.1172H13.9002V8.99317H13.93C15.1601 8.99317 16.2699 9.64602 16.8998 10.5961V9.28982C16.8998 5.51965 13.8102 2.46244 10 2.46244C6.18982 2.46244 3.10016 5.52021 3.10016 9.28982V10.5961C3.73013 9.61652 4.81007 8.99317 6.07001 8.99317H6.09982V16.1172C4.11992 16.1172 2.52981 14.5143 2.52981 12.5552V12.3175H2.5V9.28982C2.5 5.1935 5.85964 1.86914 9.99944 1.86914ZM5.49911 15.4638V9.64602V9.64547C4.14918 9.91262 3.09905 11.1298 3.09905 12.5546C3.09905 13.9794 4.14918 15.1966 5.49911 15.4638ZM10.899 17.8982H9.09904V17.3044H10.899V17.8982ZM14.4986 9.64602V15.4638V15.4644C15.8789 15.1972 16.8987 13.98 16.8987 12.5552C16.8987 11.1304 15.8784 9.91317 14.4986 9.64602Z" fill="url(#paint0_linear)"/>
<defs>
<linearGradient id="paint0_linear" x1="-5" y1="10.1806" x2="11.5356" y2="25.1018" gradientUnits="userSpaceOnUse">
<stop stop-color="#CC4C88"/>
<stop offset="1" stop-color="#9D2550"/>
</linearGradient>
</defs>
</svg>
